# AST/ASF file generated using VICON BodyLanguage
# -----------------------------------------------
:version 1.10
:name VICON
:units
  mass 1.0
  length 0.45
  angle deg
:documentation
   .ast/.asf automatically generated from VICON data using
   VICON BodyBuilder and BodyLanguage model FoxedUp or BRILLIANT.MOD
:root
   order TX TY TZ RX RY RZ
   axis XYZ
   position 0 0 0  
   orientation 0 0 0 
:bonedata
  begin
     id 1 
     name lhipjoint
     direction 0.588788 -0.725889 0.355548 
     length 2.37778 
     axis 0 0 0  XYZ
  end
  begin
     id 2 
     name lfemur
     direction 0.34202 -0.939693 0  
     length 6.86393  
     axis 0 0 20  XYZ
    dof rx ry rz
    limits (-160.0 20.0)
           (-70.0 70.0)
           (-60.0 70.0)
  end
  begin
     id 3 
     name ltibia
     direction 0.34202 -0.939693 0   
     length 7.32851   
     axis 0 0 20   XYZ
    dof rx
    limits (-10.0 170.0)
  end
  begin
     id 4 
     name lfoot
     direction 0.0626533 -0.172138 0.983078   
     length 1.98929   
     axis -90 7.62852e-016 20   XYZ
    dof rx rz
    limits (-45.0 90.0)
           (-70.0 20.0)
  end
  begin
     id 5 
     name ltoes
     direction 1.53647e-011 -4.21734e-011 1   
     length 1.00479   
     axis -90 7.62852e-016 20   XYZ
    dof rx
    limits (-90.0 20.0)
  end
  begin
     id 6 
     name rhipjoint
     direction -0.59141 -0.724168 0.354705   
     length 2.38343  
     axis 0 0 0  XYZ 
  end
  begin
     id 7 
     name rfemur
     direction -0.34202 -0.939693 0   
     length 6.95589   
     axis 0 0 -20   XYZ
    dof rx ry rz
    limits (-160.0 20.0)
           (-70.0 70.0)
           (-70.0 60.0)
  end
  begin
     id 8 
     name rtibia
     direction -0.34202 -0.939693 0   
     length 7.32327   
     axis 0 0 -20   XYZ
    dof rx
    limits (-10.0 170.0)
 end
 begin
     id 9 
     name rfoot
     direction -0.0660461 -0.18146 0.981178   
     length 1.85272  
     axis -90 -7.62852e-016 -20   XYZ
    dof rx rz
    limits (-45.0 90.0)
           (-20.0 70.0)
  end
  begin
     id 10 
     name rtoes
     direction -1.53586e-011 -4.21988e-011 1   
     length 0.93746   
     axis -90 -7.62852e-016 -20   XYZ
    dof rx
    limits (-90.0 20.0)
  end
  begin
     id 11 
     name lowerback
     direction -0.0107982 0.991059 0.13299   
     length 1.98691   
     axis 0 0 0   XYZ
    dof rx ry rz
    limits (-20.0 45.0)
           (-30.0 30.0)
           (-30.0 30.0)
  end
  begin
     id 12 
     name upperback
     direction 0.0076296 0.999916 0.0104576   
     length 1.99501   
     axis 0 0 0   XYZ
    dof rx ry rz
    limits (-20.0 45.0)
           (-30.0 30.0)
           (-30.0 30.0)
  end
  begin
     id 13 
     name thorax
     direction 0.01176 0.998615 -0.0512909   
     length 2.03144   
     axis 0 0 0   XYZ
    dof rx ry rz
    limits (-20.0 45.0)
           (-30.0 30.0)
           (-30.0 30.0)
  end
  begin
     id 14 
     name lowerneck
     direction -0.0171909 0.999644 0.0204011   
     length 1.71818   
     axis 0 0 0   XYZ
    dof rx ry rz
    limits (-20.0 45.0)
           (-30.0 30.0)
           (-30.0 30.0)
  end
  begin
     id 15 
     name upperneck
     direction 0.0250902 0.997482 -0.0663316   
     length 1.66199   
     axis 0 0 0   XYZ
    dof rx ry rz
    limits (-20.0 45.0)
           (-30.0 30.0)
           (-30.0 30.0)
  end
  begin
     id 16
     name head
     direction 0.00881535 0.99956 -0.0283365  
     length 1.81545  
     axis 0 0 0   XYZ
    dof rx ry rz
    limits (-20.0 45.0)
           (-30.0 30.0)
           (-30.0 30.0)
  end
  begin
     id 17 
     name lclavicle
     direction 0.840411 0.486876 -0.238035  
     length 3.30409  
     axis 0 0 0   XYZ
    dof ry rz
    limits (-20.0 10.0)
           (0.0 20.0)
  end
  begin
     id 18 
     name lhumerus
     direction 1 -4.48977e-011 -5.16239e-027   
     length 4.62672   
     axis 180 -30 -90   XYZ
    dof rx ry rz
    limits (-60.0 90.0)
           (-90.0 90.0)
           (-90.0 90.0)
  end
  begin
     id 19
     name lradius
     direction 1 -4.48977e-011 -8.71171e-027   
     length 3.11018   
     axis 180 -30 -90   XYZ
    dof rx
    limits (-10.0 170.0)
  end
  begin
     id 20
     name lwrist
     direction 1 -4.48912e-011 -1.03764e-026   
     length 1.55509   
     axis 9.09556e-015 90 90   XYZ
    dof ry
    limits (-180.0 0.0)
 end
  begin
     id 21 
     name lhand
     direction 1 -4.49072e-011 -2.07528e-026   
     length 0.743834   
     axis 1.3242e-014 90 90   XYZ
    dof rx rz
    limits (-90.0 90.0)
           (-45.0 45.0)
  end
  begin
     id 22 
     name lfingers
     direction 1 -4.48909e-011 -4.15056e-026   
     length 0.599698   
     axis 2.64841e-014 90 90   XYZ
    dof rx
    limits (0.0 90.0)
  end
  begin
     id 23
     name lthumb
     direction 0.707107 -6.35013e-011 0.707107   
     length 0.86105   
     axis -90 45 2.85299e-015   XYZ
    dof rx rz
    limits (-45.0 45.0)
           (-45.0 45.0)
  end
  begin
     id 24 
     name rclavicle
     direction -0.835208 0.500237 -0.228452   
     length 3.2716  
     axis 0 0 0   XYZ 
    dof ry rz
    limits (-10.0 20.0)
           (-20.0 0.0)
  end
  begin
     id 25 
     name rhumerus
     direction -1 -4.48978e-011 -5.1953e-028  
     length 4.55919   
     axis 180 30 90   XYZ
    dof rx ry rz
    limits (-90.0 60.0)
           (-90.0 90.0)
           (-90.0 90.0)
  end
  begin
     id 26 
     name rradius
     direction -1 -4.48961e-011 -5.99546e-027   
     length 3.22748   
     axis 180 30 90   XYZ
    dof rx
    limits (-10.0 170.0)
  end
  begin
     id 27 
     name rwrist
     direction -1 -4.48986e-011 -1.03764e-026   
     length 1.61374   
     axis 9.09556e-015 -90 -90   XYZ
    dof ry
    limits (-180.0 0.0)
  end
  begin
     id 28
     name rhand
     direction -1 -4.4899e-011 -2.07528e-026   
     length 0.700882   
     axis 1.3242e-014 -90 -90   XYZ
    dof rx rz
    limits (-90.0 90.0)
           (-45.0 45.0)
  end
  begin
     id 29
     name rfingers
     direction -1 -4.48991e-011 -4.15056e-026   
     length 0.565069   
     axis 2.64841e-014 -90 -90   XYZ
    dof rx
    limits (0.0 90.0)
  end
  begin
     id 30
     name rthumb
     direction -0.707107 -6.34804e-011 0.707107   
     length 0.811329   
     axis -90 -45 -2.85299e-015   XYZ
    dof rx rz
    limits (-45.0 45.0)
           (-45.0 45.0)
  end
:hierarchy
  begin
    root lhipjoint rhipjoint lowerback
    lhipjoint lfemur
    lfemur ltibia
    ltibia lfoot
    lfoot ltoes
    rhipjoint rfemur
    rfemur rtibia
    rtibia rfoot
    rfoot rtoes
    lowerback upperback
    upperback thorax
    thorax lowerneck lclavicle rclavicle
    lowerneck upperneck
    upperneck head
    lclavicle lhumerus
    lhumerus lradius
    lradius lwrist
    lwrist lhand lthumb
    lhand lfingers
    rclavicle rhumerus
    rhumerus rradius
    rradius rwrist
    rwrist rhand rthumb
    rhand rfingers
  end

#!OML:ASF F:\VICON\USERDATA\INSTALL\SteveWalk\SteveWalk.ASF
:FULLY-SPECIFIED
:DEGREES
80
root 0.0855823 16.3763 -27.2498 18.6277 -3.99931 3.81349
lowerback -15.5672 -0.0429221 -5.86011
upperback -5.33969 0.885862 -1.73677
thorax 2.98025 0.456619 1.64027
lowerneck -3.8583 -1.39249 -0.312597
upperneck 8.50692 -1.92504 0.894035
head 3.42998 -0.92938 0.266253
rclavicle -9.2994e-015 3.97569e-016
rhumerus -40.6256 0.228596 -88.0443
rradius 46.1439
rwrist -23.4921
rhand -17.7809 -39.6423
rfingers 7.12502
rthumb 8.48179 -69.452
lclavicle -9.2994e-015 3.97569e-016
lhumerus -55.6413 36.8525 49.6682
lradius 13.0193
lwrist -35.8101
lhand -16.4654 -14.255
lfingers 7.12502
lthumb 9.75118 15.4993
rfemur -31.4972 -5.71422 14.4498
rtibia 73.897
rfoot -0.197342 2.63077
rtoes -9.07341
lfemur -39.1784 1.41017 -26.89
ltibia 36.8988
lfoot -15.7712 0.942273
ltoes -7.74574
81
root 0.0995621 16.401 -27.0391 18.6111 -4.04502 3.53583
lowerback -15.8389 -0.100068 -5.44791
upperback -5.09012 0.77405 -1.60631
thorax 3.40408 0.385283 1.53002
lowerneck -4.13069 -1.32829 -0.266903
upperneck 8.54395 -1.84124 0.877795
head 3.49418 -0.886108 0.254559
rclavicle -2.62147e-015 -5.96354e-016
rhumerus -41.0776 -0.717695 -87.729
rradius 44.0997
rwrist -22.3014
rhand -17.5249 -39.1273
rfingers 7.12502
rthumb 8.72883 -68.9269
lclavicle -2.62147e-015 -5.96354e-016
lhumerus -52.1389 36.1902 53.4522
lradius 13.2983
lwrist -33.8848
lhand -16.6528 -13.8264
lfingers 7.12502
lthumb 9.57035 15.9362
rfemur -33.098 -5.8022 15.0242
rtibia 74.0007
rfoot -1.61934 2.76792
rtoes -9.26151
lfemur -38.0933 1.72417 -26.7104
ltibia 36.5591
lfoot -16.5635 0.815774
ltoes -7.08
82
root 0.1157 16.4147 -26.8386 18.5838 -4.18701 3.45869
lowerback -15.9009 -0.134012 -5.30883
upperback -4.9567 0.712423 -1.4904
thorax 3.5836 0.348423 1.56377
lowerneck -4.33553 -1.2898 -0.170344
upperneck 8.64443 -1.78216 0.698835
head 3.56531 -0.860113 0.179982
rclavicle -7.10034e-015 -1.17283e-014
rhumerus -41.7514 -1.74056 -87.1601
rradius 42.2724
rwrist -20.7402
rhand -17.0255 -39.6079
rfingers 7.12502
rthumb 9.21073 -69.3867
lclavicle -7.10034e-015 -1.17283e-014
lhumerus -49.1019 35.6958 56.5045
lradius 13.4252
lwrist -32.895
lhand -17.0862 -14.0854
lfingers 7.12502
lthumb 9.15213 15.696
rfemur -34.7 -5.83184 15.3495
rtibia 73.9229
rfoot -3.39297 2.85486
rtoes -9.97832
lfemur -37.0634 1.87286 -26.7079
ltibia 36.2211
lfoot -17.2575 0.848306
ltoes -6.50913
83
root 0.127966 16.4282 -26.6448 18.3928 -4.21598 3.505
lowerback -15.6761 -0.202019 -5.30139
upperback -4.99667 0.600446 -1.41296
thorax 3.42735 0.297598 1.61884
lowerneck -3.65519 -1.29172 -0.114998
upperneck 8.34822 -1.77919 0.620357
head 3.32924 -0.862668 0.15053
rclavicle 5.41688e-015 3.37934e-015
rhumerus -42.8248 -2.60595 -86.7188
rradius 40.5294
rwrist -19.9795
rhand -16.0008 -40.1965
rfingers 7.12502
rthumb 10.1994 -69.9292
lclavicle 5.41688e-015 3.37934e-015
lhumerus -46.0383 33.6378 60.3108
lradius 13.9856
lwrist -30.3383
lhand -17.1924 -14.0187
lfingers 7.12502
lthumb 9.04972 15.7672
rfemur -36.1522 -5.98887 15.6251
rtibia 73.6683
rfoot -5.23825 3.03932
rtoes -11.3425
lfemur -35.8999 1.99061 -26.7967
ltibia 35.9203
lfoot -17.8857 0.694009
ltoes -5.83462
84
root 0.128722 16.4419 -26.4513 18.1471 -4.03136 3.555
lowerback -15.2441 -0.37144 -5.35712
upperback -5.05267 0.349271 -1.32352
thorax 3.15185 0.181273 1.69706
lowerneck -3.14116 -1.25746 -0.192554
upperneck 8.22322 -1.7379 0.751533
head 3.19003 -0.84146 0.212069
rclavicle -1.57102e-014 -1.59028e-015
rhumerus -43.7982 -3.39857 -86.3355
rradius 38.594
rwrist -19.4778
rhand -15.138 -40.19
rfingers 7.12502
rthumb 11.0316 -69.8801
lclavicle -1.57102e-014 -1.59028e-015
lhumerus -42.9984 30.6034 64.3919
lradius 14.9292
lwrist -26.607
lhand -17.0606 -13.7454
lfingers 7.12502
lthumb 9.17687 16.035
rfemur -37.4444 -6.19572 16.0327
rtibia 73.2266
rfoot -7.02742 3.07045
rtoes -12.2839
lfemur -34.686 2.16928 -26.8468
ltibia 35.6354
lfoot -18.5745 0.426331
ltoes -5.418
85
root 0.135154 16.4438 -26.2495 17.8871 -4.05227 3.45385
lowerback -14.9337 -0.489112 -5.27606
upperback -5.00385 0.154769 -1.13474
thorax 3.05012 0.0870427 1.81532
lowerneck -3.14902 -1.12321 -0.393059
upperneck 8.53036 -1.55644 0.851392
head 3.29946 -0.753312 0.285507
rclavicle -6.01013e-015 1.39149e-015
rhumerus -44.6027 -3.97239 -85.8105
rradius 36.7391
rwrist -18.6482
rhand -14.8566 -39.7136
rfingers 7.12502
rthumb 11.303 -69.389
lclavicle -6.01013e-015 1.39149e-015
lhumerus -40.2831 28.2105 67.7221
lradius 15.6726
lwrist -23.8707
lhand -17.4044 -13.8183
lfingers 7.12502
lthumb 8.84511 15.9764
rfemur -38.6566 -6.1814 16.4905
rtibia 72.6213
rfoot -8.82831 3.05805
rtoes -12.4693
lfemur -33.4605 2.5307 -26.8271
ltibia 35.408
lfoot -19.2599 0.427699
ltoes -6.3022
86
root 0.153006 16.4382 -26.0309 17.5974 -4.60228 3.2308
lowerback -15.0334 -0.385905 -4.96171
upperback -4.73328 0.255585 -1.00145
thorax 3.38513 0.124397 1.79648
lowerneck -3.51176 -1.03723 -0.523164
upperneck 8.83775 -1.43854 0.89833
head 3.47671 -0.695676 0.326033
rclavicle -1.26104e-015 -7.15625e-015
rhumerus -45.1413 -4.72249 -85.1684
rradius 34.9759
rwrist -17.4987
rhand -14.6694 -39.414
rfingers 7.12502
rthumb 11.4836 -69.0794
lclavicle -1.26104e-015 -7.15625e-015
lhumerus -37.492 25.535 70.928
lradius 16.5108
lwrist -21.1705
lhand -17.7774 -13.6955
lfingers 7.12502
lthumb 8.48516 16.114
rfemur -39.9259 -5.74183 16.878
rtibia 71.8458
rfoot -10.0475 3.12914
rtoes -12.6826
lfemur -32.1335 3.22564 -26.8715
ltibia 35.1584
lfoot -19.9278 1.18842
ltoes -10.0766
87
root 0.155372 16.4355 -25.8358 17.7035 -4.10954 3.21723
lowerback -15.0482 -0.678004 -4.93969
upperback -4.64973 -0.135219 -0.84899
thorax 3.50743 -0.0724608 1.87536
lowerneck -3.77377 -1.00074 -0.483614
upperneck 8.92104 -1.38411 0.805463
head 3.5547 -0.670296 0.289718
rclavicle -5.44173e-015 8.34896e-015
rhumerus -45.6415 -5.58362 -84.5015
rradius 33.2077
rwrist -16.2652
rhand -14.6104 -39.3179
rfingers 7.12502
rthumb 11.5405 -68.9802
lclavicle -5.44173e-015 8.34896e-015
lhumerus -35.0125 22.5675 73.6041
lradius 17.3991
lwrist -18.4523
lhand -17.8908 -13.7805
lfingers 7.12502
lthumb 8.37569 16.0334
rfemur -41.5283 -6.14489 17.4897
rtibia 70.9793
rfoot -10.7192 2.97749
rtoes -12.5829
lfemur -31.4467 3.58969 -26.9137
ltibia 35.0371
lfoot -20.597 0.715156
ltoes -10.9444
88
root 0.156039 16.4436 -25.6198 17.3235 -3.15746 3.36854
lowerback -14.7489 -1.11791 -4.94918
upperback -4.49032 -0.730853 -0.742099
thorax 3.55648 -0.370231 1.88843
lowerneck -3.62687 -0.985624 -0.442971
upperneck 8.78625 -1.35486 0.676785
head 3.47736 -0.660294 0.24255
rclavicle 6.39838e-016 -7.65321e-015
rhumerus -46.3049 -6.50489 -83.7423
rradius 31.3685
rwrist -15.0764
rhand -14.8278 -39.3621
rfingers 7.12502
rthumb 11.3308 -69.036
lclavicle 6.39838e-016 -7.65321e-015
lhumerus -32.9696 20.4421 75.3372
lradius 18.0243
lwrist -16.5751
lhand -18.1678 -14.3906
lfingers 7.12502
lthumb 8.10839 15.4339
rfemur -42.1878 -6.92063 18.0029
rtibia 69.7938
rfoot -11.6019 2.47999
rtoes -12.5596
lfemur -30.0459 3.59509 -26.8689
ltibia 34.9355
lfoot -21.4414 -0.561742
ltoes -8.09122
89
root 0.165082 16.4304 -25.4272 17.4283 -3.38605 3.19563
lowerback -14.7243 -1.14194 -4.66634
upperback -4.60276 -0.814115 -0.644124
thorax 3.42909 -0.407167 1.81831
lowerneck -3.19969 -0.895238 -0.550913
upperneck 8.71862 -1.23683 0.782746
head 3.37265 -0.602473 0.302614
rclavicle 2.98177e-016 1.20265e-014
rhumerus -47.1643 -7.48017 -82.7519
rradius 29.5019
rwrist -13.459
rhand -14.7424 -39.1612
rfingers 7.12502
rthumb 11.4132 -68.8305
lclavicle 2.98177e-016 1.20265e-014
lhumerus -31.2278 18.4325 76.7223
lradius 18.7301
lwrist -14.7921
lhand -18.443 -14.967
lfingers 7.12502
lthumb 7.84277 14.8675
rfemur -43.7667 -6.62744 18.582
rtibia 68.4684
rfoot -12.1658 1.94389
rtoes -11.2303
lfemur -29.3556 4.07059 -26.7882
ltibia 34.9533
lfoot -22.0438 -1.0169
ltoes -6.53143
90
root 0.166237 16.4185 -25.2281 17.6496 -3.32143 3.12937
lowerback -14.7926 -1.25474 -4.64309
upperback -4.73064 -0.972565 -0.510513
thorax 3.3431 -0.481691 1.9179
lowerneck -2.98403 -0.820265 -0.609783
upperneck 8.78713 -1.14062 0.858
head 3.35537 -0.554403 0.341858
rclavicle 1.57071e-014 -1.38155e-014
rhumerus -48.1019 -8.80165 -81.3086
rradius 27.7142
rwrist -11.4384
rhand -14.3493 -38.5594
rfingers 7.12502
rthumb 11.7923 -68.2074
lclavicle 1.57071e-014 -1.38155e-014
lhumerus -29.4452 16.0593 78.088
lradius 19.4727
lwrist -12.8665
lhand -18.2281 -14.9594
lfingers 7.12502
lthumb 8.05022 14.8672
rfemur -45.2627 -6.53536 19.1588
rtibia 66.8964
rfoot -13.1215 1.23746
rtoes -8.97271
lfemur -28.8533 4.61075 -26.7983
ltibia 35.008
lfoot -22.5977 -1.60247
ltoes -6.11391
91
root 0.169411 16.4049 -25.0204 17.8019 -2.99008 2.99488
lowerback -15.0115 -1.41837 -4.33877
upperback -4.67488 -1.22192 -0.439214
thorax 3.53308 -0.609595 1.77301
lowerneck -2.80112 -0.752739 -0.479641
upperneck 8.50376 -1.0548 0.838191
head 3.22067 -0.50927 0.316541
rclavicle -1.48731e-014 -7.45443e-015
rhumerus -48.8464 -10.3328 -79.8281
rradius 26.0261
rwrist -9.1215
rhand -14.1156 -38.361
rfingers 7.12502
rthumb 12.0176 -67.9959
lclavicle -1.48731e-014 -7.45443e-015
lhumerus -27.6243 13.8297 79.0787
lradius 20.4252
lwrist -11.2502
lhand -17.6208 -14.6818
lfingers 7.12502
lthumb 8.6363 15.1216
rfemur -46.4568 -6.73113 19.8412
rtibia 65.1234
rfoot -13.9927 -0.0368189
rtoes -9.75167
lfemur -28.2342 5.01005 -26.6574
ltibia 35.093
lfoot -23.3141 -2.28171
ltoes -5.26751
